#N canvas 456 164 934 569 10;
#X floatatom 301 46 5 0 0 0 - - -, f 5;
#X floatatom 301 116 5 0 0 0 - - -, f 5;
#X obj 301 84 expr (60/$f1)*1000;
#X text 337 47 bpm;
#X text 653 85 convert to ms;
#X text 344 117 ms;
#X obj 274 161 metro;
#X obj 274 243 vline~;
#X obj 371 674 *~;
#X obj 532 675 *~;
#X obj 435 788 dac~ 1 2;
#X text 48 45 Left;
#X text 102 46 Right;
#X text 69 20 Panning:;
#X obj 54 70 vsl 15 128 0 200 0 0 distanceL empty empty 0 -9 0 10 -257985
-1 -1 7900 1;
#X obj 112 69 vsl 15 128 0 200 0 0 distanceR empty empty 0 -9 0 10
-260097 -1 -1 7800 1;
#X obj 386 582 / 200;
#X obj 547 585 / 200;
#X obj 547 622 - 1;
#X obj 386 622 - 1;
#X obj 386 650 * -0.8;
#X obj 547 648 * -0.8;
#X floatatom 524 116 5 0 0 0 - - -, f 5;
#X obj 524 84 expr (60/$f1)*1000;
#X text 567 117 ms;
#X obj 497 161 metro;
#X text 535 161 outputs bang every 'x' ms;
#X obj 497 243 vline~;
#X text 591 191 got to 1 (full volume) in 20 \, then go to zero (no
volume) in 20 ms after waiting 20 ms;
#X text 545 242 translate to audio rate signal;
#X text 575 275 generate 800 hz sine tone;
#X text 527 317 multiply sine tone by amplitude envelope;
#X obj 455 377 t b f;
#X obj 449 400 -;
#X floatatom 484 424 5 0 0 0 - - -, f 5;
#X obj 449 424 abs;
#X msg 274 194 1 200 \, 0 200 100;
#X msg 497 194 1 300 \, 0 150 100;
#X obj 289 274 osc~ 60;
#X obj 512 274 osc~ 100;
#X obj 190 326 *~;
#X floatatom 38 273 5 0 0 0 - - -, f 5;
#X floatatom 223 121 5 0 0 0 - - -, f 5;
#X obj 175 100 - 200;
#X obj 78 642 vline~;
#X obj 2 618 osc~ 80;
#X obj 41 672 *~;
#X obj 41 694 *~ 0.6;
#X obj 829 618 vline~;
#X obj 761 595 osc~ 80;
#X obj 781 647 *~;
#X obj 779 676 *~ 0.6;
#X obj 78 618 metro 500;
#X obj 829 594 metro 500;
#X floatatom 834 122 5 0 0 0 - - -, f 5;
#X obj 786 98 - 200;
#X obj 786 139 * -0.8;
#X floatatom 523 44 5 0 0 0 - - -, f 5;
#X text 559 45 bpm;
#X obj 175 138 * -0.6;
#X obj 448 446 * 3.3;
#X obj 448 471 + 11;
#X obj 519 342 *~;
#X obj 798 298 r distanceR;
#X obj -2 313 r distanceL;
#X obj 78 595 < 50;
#X text 526 561 Volume/Panning (R);
#X text 377 558 Volume/Panning (L);
#X text 310 356 Pitch changes over distance;
#X text 782 73 Get bpm (R);
#X text 169 74 Get bpm (L);
#X obj 829 569 < 50;
#X text 73 572 Small distance alert (L);
#X text 800 549 Small distance alert (R);
#X obj 157 291 vsl 15 64 0 10 0 0 empty empty empty 0 -9 0 10 -159808
-1 -1 500 1;
#X text 120 264 Modulo;
#X obj 178 374 osc~ 1;
#X obj 583 297 vsl 15 64 0 10 0 0 empty empty empty 0 -9 0 10 -159808
-1 -1 1200 1;
#X obj 549 383 osc~ 1;
#X connect 0 0 2 0;
#X connect 1 0 6 1;
#X connect 2 0 1 0;
#X connect 6 0 36 0;
#X connect 8 0 10 0;
#X connect 9 0 10 1;
#X connect 16 0 19 0;
#X connect 17 0 18 0;
#X connect 18 0 21 0;
#X connect 19 0 20 0;
#X connect 20 0 8 1;
#X connect 21 0 9 1;
#X connect 22 0 25 1;
#X connect 23 0 22 0;
#X connect 25 0 37 0;
#X connect 32 0 33 0;
#X connect 32 1 33 1;
#X connect 33 0 35 0;
#X connect 35 0 34 0;
#X connect 35 0 60 0;
#X connect 36 0 7 0;
#X connect 37 0 27 0;
#X connect 38 0 40 1;
#X connect 39 0 62 1;
#X connect 40 0 8 0;
#X connect 43 0 42 0;
#X connect 43 0 59 0;
#X connect 44 0 46 1;
#X connect 45 0 46 0;
#X connect 46 0 47 0;
#X connect 47 0 10 0;
#X connect 48 0 50 1;
#X connect 49 0 50 0;
#X connect 50 0 51 0;
#X connect 51 0 10 1;
#X connect 52 0 44 0;
#X connect 53 0 48 0;
#X connect 55 0 54 0;
#X connect 55 0 56 0;
#X connect 56 0 57 0;
#X connect 57 0 23 0;
#X connect 59 0 0 0;
#X connect 60 0 61 0;
#X connect 62 0 9 0;
#X connect 63 0 17 0;
#X connect 63 0 32 0;
#X connect 63 0 25 0;
#X connect 63 0 55 0;
#X connect 63 0 71 0;
#X connect 64 0 16 0;
#X connect 64 0 41 0;
#X connect 64 0 43 0;
#X connect 64 0 6 0;
#X connect 64 0 33 0;
#X connect 64 0 65 0;
#X connect 65 0 52 0;
#X connect 71 0 53 0;
#X connect 74 0 76 0;
#X connect 76 0 40 0;
#X connect 77 0 78 0;
#X connect 78 0 62 0;
