#N canvas 755 199 721 532 10;
#X floatatom 273 89 5 0 0 0 - - -, f 5;
#X floatatom -17 90 5 0 0 0 - - -, f 5;
#X obj 11 369 delread~ delayLeft;
#X obj 353 368 delread~ delayRight;
#X floatatom 354 299 5 0 500 0 - - -, f 5;
#X floatatom 12 298 5 0 500 0 - - -, f 5;
#X obj -42 235 delwrite~ delayLeft 1500;
#X floatatom -17 148 5 0 0 0 - - -, f 5;
#X floatatom 271 135 5 0 0 0 - - -, f 5;
#X obj 13 421 *~;
#X obj 344 425 *~;
#X obj -17 110 * 0.0025;
#X obj 271 108 * 0.0025;
#X floatatom -78 222 5 0 0 0 - - -, f 5;
#X floatatom 207 212 5 0 0 0 - - -, f 5;
#X obj 174 570 dac~ 1 2;
#X obj 463 107 vsl 15 128 0 200 0 0 distanceL empty empty 0 -9 0 10
-45076 -1 -1 0 1;
#X obj 523 108 vsl 15 128 0 200 0 0 distanceR empty empty 0 -9 0 10
-260097 -1 -1 0 1;
#X obj 103 14 adc~;
#X obj -39 166 - 1;
#X obj 246 156 - 1;
#X obj 24 568 writesf~ 2;
#X msg -99 444 open /storage/sdcard0/rec.wav \, start;
#X obj -98 413 r #rec;
#X obj 142 375 metro;
#X obj 202 399 bng 15 250 50 0 empty empty empty 17 7 0 10 -262144
-1 -1;
#X obj -41 195 * -0.75;
#X obj 244 185 * -0.75;
#X obj 156 339 *;
#X obj 141 464 *~;
#X obj 177 427 del 200;
#X msg 246 447 0.5;
#X msg 201 447 0;
#X obj 193 488 line~;
#X msg 222 469 \$1 100;
#X obj 143 526 *~ 0.5;
#X obj -46 305 line~;
#X obj 275 320 line~;
#X msg -46 273 \$1 500;
#X msg 275 288 \$1 500;
#X obj 490 365 metro;
#X obj 552 398 bng 15 250 50 0 empty empty empty 17 7 0 10 -262144
-1 -1;
#X obj 506 338 *;
#X obj 491 456 *~;
#X obj 527 426 del 200;
#X msg 596 446 0.5;
#X msg 551 446 0;
#X obj 543 487 line~;
#X msg 572 468 \$1 200;
#X obj 392 427 > 0;
#X obj 491 496 *~;
#X obj 49 321 > 0;
#X obj 142 494 *~;
#X obj 411 45 r #datasent;
#X obj 14 340 * 5;
#X obj 141 299 < 50;
#X obj 84 319 * 20;
#X obj 481 315 < 50;
#X obj 421 322 * 20;
#X obj 352 343 * 5;
#X obj 410 79 osc~ 100;
#X obj 492 406 osc~ 550;
#X obj 203 300 / 10;
#X obj 141 407 osc~ 550;
#X obj 228 388 * -1;
#X obj 203 330 *;
#X floatatom 246 353 5 0 0 0 - - -, f 5;
#X obj 203 363 - 6;
#X obj 283 424 phasor~;
#X obj 282 460 *~ 0.5;
#X obj 281 490 *~;
#X obj -17 68 r #distanceL;
#X obj 273 65 r #distanceR;
#X obj 25 273 r #distanceL;
#X obj 353 266 r #distanceR;
#X obj 490 534 *~ 0.5;
#X obj 227 233 delwrite~ delayRight 1500;
#X connect 0 0 12 0;
#X connect 1 0 11 0;
#X connect 2 0 9 0;
#X connect 3 0 10 0;
#X connect 4 0 59 0;
#X connect 5 0 54 0;
#X connect 9 0 15 0;
#X connect 9 0 21 0;
#X connect 10 0 15 1;
#X connect 10 0 21 1;
#X connect 11 0 7 0;
#X connect 11 0 19 0;
#X connect 12 0 8 0;
#X connect 12 0 20 0;
#X connect 18 0 6 0;
#X connect 18 0 15 0;
#X connect 18 0 15 1;
#X connect 18 0 21 0;
#X connect 18 0 76 0;
#X connect 18 1 6 0;
#X connect 18 1 21 1;
#X connect 18 1 76 0;
#X connect 19 0 26 0;
#X connect 20 0 27 0;
#X connect 22 0 21 0;
#X connect 23 0 22 0;
#X connect 24 0 25 0;
#X connect 25 0 30 0;
#X connect 25 0 31 0;
#X connect 26 0 13 0;
#X connect 26 0 38 0;
#X connect 27 0 14 0;
#X connect 27 0 39 0;
#X connect 28 0 24 1;
#X connect 29 0 52 0;
#X connect 30 0 32 0;
#X connect 31 0 34 0;
#X connect 32 0 34 0;
#X connect 33 0 29 1;
#X connect 34 0 33 0;
#X connect 35 0 15 0;
#X connect 35 0 21 0;
#X connect 36 0 9 1;
#X connect 37 0 10 1;
#X connect 38 0 36 0;
#X connect 39 0 37 0;
#X connect 40 0 41 0;
#X connect 41 0 44 0;
#X connect 41 0 45 0;
#X connect 42 0 40 1;
#X connect 43 0 50 0;
#X connect 44 0 46 0;
#X connect 45 0 48 0;
#X connect 46 0 48 0;
#X connect 47 0 43 1;
#X connect 48 0 47 0;
#X connect 49 0 50 1;
#X connect 50 0 75 0;
#X connect 51 0 52 1;
#X connect 52 0 35 0;
#X connect 53 0 60 0;
#X connect 54 0 2 0;
#X connect 55 0 28 1;
#X connect 55 0 24 0;
#X connect 55 0 65 1;
#X connect 55 0 70 1;
#X connect 56 0 28 0;
#X connect 57 0 42 1;
#X connect 57 0 40 0;
#X connect 58 0 42 0;
#X connect 59 0 3 0;
#X connect 61 0 43 0;
#X connect 62 0 65 0;
#X connect 63 0 29 0;
#X connect 64 0 68 0;
#X connect 65 0 66 0;
#X connect 66 0 67 0;
#X connect 67 0 64 0;
#X connect 68 0 69 0;
#X connect 69 0 70 0;
#X connect 71 0 1 0;
#X connect 72 0 0 0;
#X connect 73 0 5 0;
#X connect 73 0 51 0;
#X connect 73 0 55 0;
#X connect 73 0 56 0;
#X connect 73 0 62 0;
#X connect 74 0 4 0;
#X connect 74 0 49 0;
#X connect 74 0 57 0;
#X connect 74 0 58 0;
#X connect 75 0 15 1;
#X connect 75 0 21 1;
