#N canvas 329 43 1043 848 10;
#X floatatom 273 89 5 0 0 0 - - -, f 5;
#X floatatom -17 90 5 0 0 0 - - -, f 5;
#X obj 16 597 delread~ delayLeft;
#X obj 372 531 delread~ delayRight;
#X floatatom 373 462 5 0 500 0 - - -, f 5;
#X floatatom 31 461 5 0 500 0 - - -, f 5;
#X obj -20 235 delwrite~ delayLeft 1500;
#X floatatom -17 148 5 0 0 0 - - -, f 5;
#X floatatom 271 135 5 0 0 0 - - -, f 5;
#X obj 32 584 *~;
#X obj 363 588 *~;
#X obj -17 110 * 0.0025;
#X obj 271 108 * 0.0025;
#X floatatom -78 222 5 0 0 0 - - -, f 5;
#X floatatom 207 212 5 0 0 0 - - -, f 5;
#X obj 278 839 dac~ 1 2;
#X obj 463 107 vsl 15 128 0 200 0 0 distanceL empty empty 0 -9 0 10
-45076 -1 -1 0 1;
#X obj 523 108 vsl 15 128 0 200 0 0 distanceR empty empty 0 -9 0 10
-260097 -1 -1 0 1;
#X obj 103 14 adc~;
#X obj -39 166 - 1;
#X obj 246 156 - 1;
#X obj -9 830 writesf~ 2;
#X msg -80 607 open /storage/sdcard0/rec.wav \, start;
#X obj -98 413 r #rec;
#X obj -41 195 * -0.75;
#X obj 244 185 * -0.75;
#X obj 411 45 r #datasent;
#X obj 410 79 osc~ 100;
#X obj -17 68 r #distanceL;
#X obj 273 65 r #distanceR;
#X obj 44 436 r #distanceL;
#X obj 372 429 r #distanceR;
#X obj 227 233 delwrite~ delayRight 1500;
#X obj 33 503 * 20;
#X obj 371 506 * 20;
#X obj 72 92 bp~ 500 10;
#X obj 154 92 bp~ 500 10;
#X msg 294 451 \$1 1000;
#X obj 294 483 vline~;
#X obj -46 305 vline~;
#X obj 290 783 *~;
#X obj 304 567 / 200;
#X obj 308 598 - 1;
#X obj 306 631 * -0.8;
#X obj 245 701 line~;
#X obj 322 289 t b f;
#X obj 248 336 -;
#X floatatom 237 420 5 0 0 0 - - -, f 5;
#X obj 252 379 abs;
#X obj 235 453 * 3;
#X obj 233 486 + 10;
#X obj 649 572 / 200;
#X obj 653 603 - 1;
#X obj 651 636 * -0.8;
#X obj 648 697 line~;
#X obj 630 756 *~;
#X floatatom 599 130 5 0 0 0 - - -, f 5;
#X floatatom 599 200 5 0 0 0 - - -, f 5;
#X obj 599 168 expr (60/$f1)*1000;
#X text 635 131 bpm;
#X text 642 201 ms;
#X obj 572 245 metro;
#X obj 572 327 vline~;
#X text 610 245 comment;
#X text 666 275 comment;
#X text 620 326 comment;
#X text 602 401 comment;
#X msg 572 278 1 200 \, 0 200 100;
#X obj 488 407 *~;
#X floatatom -68 125 5 0 0 0 - - -, f 5;
#X obj -116 104 - 200;
#X floatatom 753 128 5 0 0 0 - - -, f 5;
#X floatatom 753 198 5 0 0 0 - - -, f 5;
#X obj 753 166 expr (60/$f1)*1000;
#X text 789 129 bpm;
#X text 796 199 ms;
#X obj 726 243 metro;
#X obj 726 325 vline~;
#X text 764 243 comment;
#X text 820 273 comment;
#X text 774 324 comment;
#X msg 726 276 1 200 \, 0 200 100;
#X floatatom 396 162 5 0 0 0 - - -, f 5;
#X obj 348 141 - 200;
#X obj 712 411 *~;
#X obj 275 528 osc~;
#X obj 160 462 < 20;
#X obj 500 478 < 20;
#X obj 16 716 *~;
#X obj 63 487 > 0;
#X obj 433 592 > 0;
#X obj 588 807 lop~ 440 0;
#X obj -52 776 lop~ 440 0;
#X obj -169 141 >= 20;
#X obj -137 182 *;
#X obj -116 142 * -0.5;
#X obj 334 193 >= 20;
#X obj 401 229 *;
#X obj 387 194 * -0.5;
#X obj 455 297 loadbang;
#X obj 536 622 *~, f 4;
#X obj 178 586 *~, f 4;
#X obj 152 681 *~;
#X obj 540 667 *~, f 4;
#X msg 235 660 \$1 100;
#X msg -46 273 \$1 1000;
#X obj 473 560 osc~ 330;
#X obj 534 553 osc~ 0.5;
#X obj 200 549 osc~ 0.5;
#X obj 99 540 osc~ 330;
#X obj 580 640 line~;
#X msg 582 613 \$1 100;
#X obj 191 649 line~;
#X msg 193 622 \$1 100;
#X obj 465 713 *~;
#X msg 650 670 \$1 1000;
#X obj 57 664 line~;
#X msg 59 637 \$1 100;
#X obj 437 647 line~;
#X msg 439 620 \$1 100;
#X connect 0 0 12 0;
#X connect 1 0 11 0;
#X connect 2 0 9 0;
#X connect 3 0 10 0;
#X connect 4 0 34 0;
#X connect 5 0 33 0;
#X connect 9 0 92 0;
#X connect 10 0 91 0;
#X connect 11 0 7 0;
#X connect 11 0 19 0;
#X connect 12 0 8 0;
#X connect 12 0 20 0;
#X connect 18 0 6 0;
#X connect 18 0 32 0;
#X connect 18 0 91 0;
#X connect 18 0 92 0;
#X connect 18 1 32 0;
#X connect 18 1 6 0;
#X connect 18 1 91 0;
#X connect 18 1 92 0;
#X connect 19 0 24 0;
#X connect 20 0 25 0;
#X connect 22 0 92 0;
#X connect 23 0 22 0;
#X connect 24 0 13 0;
#X connect 24 0 105 0;
#X connect 25 0 14 0;
#X connect 25 0 37 0;
#X connect 26 0 27 0;
#X connect 28 0 1 0;
#X connect 28 0 70 0;
#X connect 28 0 93 0;
#X connect 29 0 0 0;
#X connect 29 0 83 0;
#X connect 29 0 96 0;
#X connect 30 0 5 0;
#X connect 30 0 41 0;
#X connect 30 0 46 0;
#X connect 30 0 86 0;
#X connect 30 0 89 0;
#X connect 31 0 4 0;
#X connect 31 0 45 0;
#X connect 31 0 51 0;
#X connect 31 0 87 0;
#X connect 31 0 90 0;
#X connect 33 0 2 0;
#X connect 34 0 3 0;
#X connect 37 0 38 0;
#X connect 38 0 10 1;
#X connect 39 0 9 1;
#X connect 40 0 92 0;
#X connect 41 0 42 0;
#X connect 42 0 43 0;
#X connect 43 0 104 0;
#X connect 44 0 40 0;
#X connect 45 0 46 0;
#X connect 45 1 46 1;
#X connect 46 0 48 0;
#X connect 47 0 49 0;
#X connect 48 0 47 0;
#X connect 49 0 50 0;
#X connect 50 0 85 0;
#X connect 51 0 52 0;
#X connect 52 0 53 0;
#X connect 53 0 115 0;
#X connect 54 0 55 0;
#X connect 55 0 91 0;
#X connect 56 0 58 0;
#X connect 57 0 61 1;
#X connect 58 0 57 0;
#X connect 61 0 67 0;
#X connect 62 0 68 0;
#X connect 67 0 62 0;
#X connect 68 0 40 1;
#X connect 70 0 69 0;
#X connect 70 0 95 0;
#X connect 71 0 73 0;
#X connect 72 0 76 1;
#X connect 73 0 72 0;
#X connect 76 0 81 0;
#X connect 77 0 84 0;
#X connect 81 0 77 0;
#X connect 83 0 82 0;
#X connect 83 0 98 0;
#X connect 84 0 55 1;
#X connect 85 0 68 1;
#X connect 85 0 84 1;
#X connect 86 0 113 0;
#X connect 87 0 111 0;
#X connect 88 0 92 0;
#X connect 89 0 117 0;
#X connect 90 0 119 0;
#X connect 91 0 21 1;
#X connect 91 0 15 1;
#X connect 92 0 21 0;
#X connect 92 0 15 0;
#X connect 93 0 94 0;
#X connect 94 0 56 0;
#X connect 95 0 94 1;
#X connect 96 0 97 0;
#X connect 97 0 71 0;
#X connect 98 0 97 1;
#X connect 99 0 61 0;
#X connect 99 0 76 0;
#X connect 100 0 103 1;
#X connect 101 0 102 0;
#X connect 102 0 88 1;
#X connect 103 0 114 1;
#X connect 104 0 44 0;
#X connect 105 0 39 0;
#X connect 106 0 100 1;
#X connect 107 0 100 0;
#X connect 108 0 101 0;
#X connect 109 0 101 1;
#X connect 110 0 103 0;
#X connect 111 0 110 0;
#X connect 112 0 102 1;
#X connect 113 0 112 0;
#X connect 114 0 91 0;
#X connect 115 0 54 0;
#X connect 116 0 88 0;
#X connect 117 0 116 0;
#X connect 118 0 114 0;
#X connect 119 0 118 0;
