#N canvas 323 113 1263 770 10;
#X floatatom 273 89 5 0 0 0 - - -, f 5;
#X floatatom -17 90 5 0 0 0 - - -, f 5;
#X obj 11 369 delread~ delayLeft;
#X obj 353 368 delread~ delayRight;
#X floatatom 354 299 5 0 500 0 - - -, f 5;
#X floatatom 12 298 5 0 500 0 - - -, f 5;
#X obj -42 235 delwrite~ delayLeft 1500;
#X floatatom -17 148 5 0 0 0 - - -, f 5;
#X floatatom 271 135 5 0 0 0 - - -, f 5;
#X obj 13 421 *~;
#X obj 344 425 *~;
#X obj -17 110 * 0.0025;
#X obj 271 108 * 0.0025;
#X floatatom -78 222 5 0 0 0 - - -, f 5;
#X floatatom 207 212 5 0 0 0 - - -, f 5;
#X obj 277 675 dac~ 1 2;
#X obj 463 107 vsl 15 128 0 200 0 0 distanceL empty empty 0 -9 0 10
-45076 -1 -1 0 1;
#X obj 523 108 vsl 15 128 0 200 0 0 distanceR empty empty 0 -9 0 10
-260097 -1 -1 0 1;
#X obj 103 14 adc~;
#X obj -39 166 - 1;
#X obj 246 156 - 1;
#X obj 8 677 writesf~ 2;
#X msg -99 444 open /storage/sdcard0/rec.wav \, start;
#X obj -98 413 r #rec;
#X obj -41 195 * -0.75;
#X obj 244 185 * -0.75;
#X obj 156 339 *;
#X obj 158 526 *~ 0.5;
#X obj -46 305 line~;
#X obj 275 320 line~;
#X msg -46 273 \$1 500;
#X msg 275 288 \$1 500;
#X obj 392 427 > 0;
#X obj 491 496 *~;
#X obj 49 321 > 0;
#X obj 142 494 *~;
#X obj 411 45 r #datasent;
#X obj 14 340 * 5;
#X obj 141 299 < 50;
#X obj 352 343 * 5;
#X obj 410 79 osc~ 100;
#X obj 490 534 *~ 0.5;
#X obj 227 233 delwrite~ delayRight 1500;
#X obj 179 37 env~;
#X floatatom 220 57 5 0 0 0 - - -, f 5;
#X obj 377 42 tgl 15 0 empty empty empty 17 7 0 10 -262144 -1 -1 0
1;
#X obj -17 68 r #distanceL;
#X obj 273 65 r #distanceR;
#X obj 353 266 r #distanceR;
#X obj 25 273 r #distanceL;
#X obj 84 319 * 0.01;
#X obj 166 418 osc~;
#X obj 143 434 *~;
#X obj 156 364 - 0.5;
#X obj 158 385 * -1;
#X obj 143 409 osc~;
#X obj 125 355 * 11;
#X obj 130 384 *;
#X obj 501 321 *;
#X obj 486 281 < 50;
#X obj 490 446 *~;
#X obj 501 346 - 0.5;
#X obj 503 367 * -1;
#X obj 470 337 * 11;
#X obj 475 366 *;
#X obj 470 393 osc~;
#X obj 421 322 * 0.01;
#X obj 504 392 osc~;
#X connect 0 0 12 0;
#X connect 1 0 11 0;
#X connect 2 0 9 0;
#X connect 3 0 10 0;
#X connect 4 0 39 0;
#X connect 5 0 37 0;
#X connect 9 0 15 0;
#X connect 9 0 21 0;
#X connect 10 0 15 1;
#X connect 10 0 21 1;
#X connect 11 0 7 0;
#X connect 11 0 19 0;
#X connect 12 0 8 0;
#X connect 12 0 20 0;
#X connect 18 0 15 0;
#X connect 18 0 21 0;
#X connect 18 0 43 0;
#X connect 18 0 6 0;
#X connect 18 0 42 0;
#X connect 18 1 21 1;
#X connect 18 1 15 1;
#X connect 18 1 6 0;
#X connect 18 1 42 0;
#X connect 19 0 24 0;
#X connect 20 0 25 0;
#X connect 22 0 21 0;
#X connect 23 0 22 0;
#X connect 24 0 13 0;
#X connect 24 0 30 0;
#X connect 25 0 14 0;
#X connect 25 0 31 0;
#X connect 26 0 53 0;
#X connect 27 0 15 0;
#X connect 27 0 21 0;
#X connect 28 0 9 1;
#X connect 29 0 10 1;
#X connect 30 0 28 0;
#X connect 31 0 29 0;
#X connect 32 0 33 1;
#X connect 33 0 41 0;
#X connect 34 0 35 1;
#X connect 35 0 27 0;
#X connect 37 0 2 0;
#X connect 38 0 26 1;
#X connect 38 0 57 1;
#X connect 39 0 3 0;
#X connect 41 0 15 1;
#X connect 41 0 21 1;
#X connect 43 0 44 0;
#X connect 45 0 40 0;
#X connect 46 0 1 0;
#X connect 47 0 0 0;
#X connect 48 0 4 0;
#X connect 48 0 32 0;
#X connect 48 0 66 0;
#X connect 48 0 59 0;
#X connect 48 0 63 0;
#X connect 49 0 5 0;
#X connect 49 0 34 0;
#X connect 49 0 38 0;
#X connect 49 0 50 0;
#X connect 49 0 56 0;
#X connect 50 0 26 0;
#X connect 51 0 52 0;
#X connect 52 0 35 0;
#X connect 53 0 54 0;
#X connect 54 0 51 0;
#X connect 55 0 52 1;
#X connect 56 0 57 0;
#X connect 57 0 55 0;
#X connect 58 0 61 0;
#X connect 59 0 58 1;
#X connect 59 0 64 1;
#X connect 60 0 33 0;
#X connect 61 0 62 0;
#X connect 62 0 67 0;
#X connect 63 0 64 0;
#X connect 64 0 65 0;
#X connect 65 0 60 1;
#X connect 66 0 58 0;
#X connect 67 0 60 0;
